<svg style="hover-color: #EA580C;" width="26" height="28" viewBox="0 0 26 28" fill="none" xmlns="http://www.w3.org/2000/svg">
<path fill-rule="evenodd" clip-rule="evenodd" d="M18.5325 26.5067H7.45533C3.38641 26.5067 0.264873 25.037 1.15153 19.1219L2.18395 11.1055C2.73052 8.154 4.61316 7.02441 6.26502 7.02441H19.7714C21.4476 7.02441 23.2209 8.23902 23.8525 11.1055L24.8849 19.1219C25.638 24.369 22.6014 26.5067 18.5325 26.5067Z" stroke="currentColor" stroke-width="1.5" stroke-linecap="round" stroke-linejoin="round"/>
<path opacity="0.4" d="M18.7148 6.73304C18.7148 3.56682 16.148 1.00005 12.9818 1.00005C11.4572 0.993642 9.99272 1.59479 8.91233 2.67063C7.83193 3.74646 7.22461 5.20835 7.22461 6.73304" stroke="currentColor" stroke-width="1.5" stroke-linecap="round" stroke-linejoin="round"/>
<path d="M16.9172 12.709H16.8564" stroke="currentColor" stroke-width="1.5" stroke-linecap="round" stroke-linejoin="round"/>
<path d="M9.17987 12.709H9.11914" stroke="currentColor" stroke-width="1.5" stroke-linecap="round" stroke-linejoin="round"/>
</svg>
